<svg viewBox="0 0 1024 1024" xmlns="http://www.w3.org/2000/svg">
    <path d="M476.612887 1009.12034L169.240699 695.380437a51.981345 51.981345 0 0 1 0-72.319045 49.382277 49.382277 0 0 1 70.824582 0l271.959897 277.645356 271.862433-277.645356a49.382277 49.382277 0 0 1 70.824582 0 51.981345 51.981345 0 0 1 0 72.319045l-307.307212 313.739903a49.447254 49.447254 0 0 1-70.792094 0z m307.274724-608.116755L511.99269 123.455693l-271.959897 277.645357a49.382277 49.382277 0 0 1-70.824582 0 51.981345 51.981345 0 0 1 0-72.319045L476.580399 15.042102a49.382277 49.382277 0 0 1 70.727117 0l307.372188 313.739903a51.981345 51.981345 0 0 1 0 72.319045 49.414766 49.414766 0 0 1-70.824582 0z" fill="currentColor"/>
</svg>
